<svg id="Calque_1" data-name="Calque 1" xmlns="http://www.w3.org/2000/svg" viewBox="0 0 274.71 67.73" role="img" aria-hidden="true" focusable="false"><polyline points="61.67 39.68 33.14 11.63 4.67 39.6 33.14 67.73" fill="#dc2e31"/><path d="M20.76,34.81c5.14.78,7.66,3.62,7.66,7.67,0,4.44-4.31,8.35-11,8.35A15.23,15.23,0,0,1,8.2,48.11l2.47-5.87c2,1.17,4.34,2.39,6.36,2.39,1.76,0,2.54-.85,2.54-1.88s-1-1.82-3.08-2.18c-4.9-.85-6.82-3.17-6.82-7.29A7.65,7.65,0,0,1,13,26.86c3.05-2.08,7-2,10.51-1.29a15.59,15.59,0,0,1,2.31.66,9.17,9.17,0,0,1,1.88,1l-2.4,5.4-1.36-.72a10.53,10.53,0,0,0-1.55-.54A12.63,12.63,0,0,0,20,31.05a3.08,3.08,0,0,0-1.44.23,1.44,1.44,0,0,0-.67,1.91,1.34,1.34,0,0,0,.18.28A4,4,0,0,0,20.76,34.81Z" fill="#1f2445"/><path d="M19.26,25.11a21.84,21.84,0,0,1,4.18.46,15.59,15.59,0,0,1,2.31.66,9.17,9.17,0,0,1,1.88,1l-2.35,5.4-1.36-.72a10.53,10.53,0,0,0-1.55-.54A12.63,12.63,0,0,0,20,31.05h-.23a2.93,2.93,0,0,0-1.21.23,1.44,1.44,0,0,0-.67,1.91,1.34,1.34,0,0,0,.18.28,4,4,0,0,0,2.68,1.31c5.14.78,7.66,3.62,7.66,7.67,0,4.44-4.31,8.35-11,8.35A15.23,15.23,0,0,1,8.2,48.08l2.47-5.84c2,1.17,4.34,2.39,6.36,2.39,1.76,0,2.54-.85,2.54-1.88s-1-1.82-3.08-2.18c-4.9-.84-6.82-3.17-6.82-7.29A7.65,7.65,0,0,1,13,26.86a11.06,11.06,0,0,1,6.33-1.75m0-.46a11.45,11.45,0,0,0-6.64,1.81,8.1,8.1,0,0,0-3.51,6.82,7.29,7.29,0,0,0,1.72,5.2A9.22,9.22,0,0,0,16.39,41c2,.34,2.73,1.14,2.73,1.72,0,.89-.79,1.42-2.12,1.42-2,0-4.46-1.32-6.12-2.31l-.37-.2-.2.45L7.81,48l-.14.31.29.22a15.61,15.61,0,0,0,9.47,2.81,13.14,13.14,0,0,0,8.24-2.6,8,8,0,0,0,3.16-6.22c0-4.45-2.85-7.34-8-8.13a3.45,3.45,0,0,1-2.4-1.13,1.14,1.14,0,0,1-.2-.88.89.89,0,0,1,.52-.6,2.27,2.27,0,0,1,1-.2H20a11,11,0,0,1,2.28.31,10,10,0,0,1,1.48.51l1.32.71.4.21.18-.43L28,27.37A.53.53,0,0,0,28,27c-.08-.2-.21-.33-1.13-.76l-1-.44a16.42,16.42,0,0,0-2.37-.68,22.28,22.28,0,0,0-4.23-.47Z" fill="#fff"/><path d="M40.17,37.87c0,3.37,1.68,6.3,5,6.3A3.69,3.69,0,0,0,48,43.4a3.74,3.74,0,0,0,1.17-2.27h-4v-5H58.28a20.7,20.7,0,0,1-.88,6.5,10.82,10.82,0,0,1-.58,1.46,11.89,11.89,0,0,1-4.52,4.73,14,14,0,0,1-7.21,2c-9.1,0-13.6-6.46-13.6-12.89S36,25.1,44.74,25.1a13.33,13.33,0,0,1,11.44,5.8L49,33.68a5.15,5.15,0,0,0-4.29-2C41.73,31.71,40.17,34.63,40.17,37.87Z" fill="#1f2445"/><path d="M44.74,25.11a13.33,13.33,0,0,1,11.44,5.8L49,33.69a5.15,5.15,0,0,0-4.29-2c-3,0-4.57,2.89-4.57,6.16s1.68,6.3,5,6.3A3.69,3.69,0,0,0,48,43.38a3.74,3.74,0,0,0,1.17-2.27h-4v-5H58.25a20.51,20.51,0,0,1-.85,6.52,10.82,10.82,0,0,1-.58,1.46,11.92,11.92,0,0,1-4.52,4.74,14.18,14.18,0,0,1-7.21,2c-9.1,0-13.6-6.46-13.6-12.89S36,25.11,44.74,25.11m0-.46a13.52,13.52,0,0,0-10.2,4.13,13.78,13.78,0,0,0,0,18.35A13.88,13.88,0,0,0,45.09,51.3a14.34,14.34,0,0,0,7.41-2,12.27,12.27,0,0,0,4.69-4.92,13.44,13.44,0,0,0,.62-1.52,21.15,21.15,0,0,0,.86-6.76v-.47h-14v6h3.91a3.61,3.61,0,0,1-.91,1.4c-.58.43-.92.67-2.56.67-3.35,0-4.54-3.14-4.54-5.83s1.28-5.69,4.14-5.69a4.72,4.72,0,0,1,4,1.76l.19.32.32-.13,7.14-2.78.54-.21-.33-.5a13.79,13.79,0,0,0-11.79-6Z" fill="#fff"/><path d="M26.3,45.79c.09-2,.52-6,6.49-6a6.08,6.08,0,0,1,5.49,3,5.08,5.08,0,0,1-.94,5.84c-.68.69-1.38,1.35-2.1,2-.3.26-.59.53-.89.78-.07.07-.31.35-.42.35h4.86v3.59H26l1.42-1.59q1.5-1.73,3-3.48c1-1.17,1.9-2.27,2.77-3.46.44-.61.91-1.29.59-2a1.56,1.56,0,0,0-1.45-1c-1.14,0-1.3.94-1.32,2Z" fill="#1f2445"/><path d="M32.79,39.77a6.08,6.08,0,0,1,5.49,3,5.08,5.08,0,0,1-.94,5.86c-.68.69-1.38,1.35-2.1,2-.3.26-.59.53-.89.78-.07.07-.31.35-.42.35h4.86v3.59H26l1.42-1.59q1.5-1.73,3-3.48c1-1.17,1.9-2.27,2.77-3.46.44-.61.91-1.29.59-2a1.56,1.56,0,0,0-1.45-1c-1.14,0-1.3.94-1.32,2H26.3c.09-2,.52-6,6.49-6m0-.41c-6.57,0-6.79,4.82-6.86,6.41v.42h5.44v-.39c0-1.21.24-1.58.94-1.58a1.21,1.21,0,0,1,1.11.7c.21.52-.09,1-.55,1.63-.82,1.14-1.73,2.23-2.75,3.44s-1.88,2.2-3,3.48l-1.45,1.53-.62.7H39.16V51.34H35l.45-.41c.79-.71,1.48-1.37,2.13-2a5.49,5.49,0,0,0,1-6.33,6.43,6.43,0,0,0-5.81-3.22Z" fill="#fff"/><path d="M26,64a.24.24,0,0,1-.21-.09.27.27,0,0,1-.07-.21V61.43l-.62,1.27a.44.44,0,0,1-.12.15.28.28,0,0,1-.21.07h-.25a.3.3,0,0,1-.22-.08.28.28,0,0,1-.1-.14l-.63-1.27v2.31a.3.3,0,0,1-.08.21.25.25,0,0,1-.19.09H22.8a.27.27,0,0,1-.21-.09.32.32,0,0,1-.08-.21V59.41a.3.3,0,0,1,.08-.22.27.27,0,0,1,.21-.09h.48a.34.34,0,0,1,.23.1l.08.11,1.08,2.16,1.09-2.17.08-.1a.29.29,0,0,1,.22-.1h.49a.31.31,0,0,1,.2.09.35.35,0,0,1,.08.22v4.33a.32.32,0,0,1-.08.21.27.27,0,0,1-.2.09Z" fill="#1f2445"/><path d="M26.54,59.24a.15.15,0,0,1,.15.15v4.35a.2.2,0,0,1,0,.11.16.16,0,0,1-.11,0h-.52s-.09,0-.11,0a.11.11,0,0,1,0-.11V60.86L25,62.63a.31.31,0,0,1-.08.11.15.15,0,0,1-.13,0h-.25a.15.15,0,0,1-.13,0,.28.28,0,0,1-.08-.11l-.87-1.77v2.88a.2.2,0,0,1,0,.11.14.14,0,0,1-.1,0h-.52a.17.17,0,0,1-.12,0,.2.2,0,0,1,0-.11V59.41a.24.24,0,0,1,0-.12h.6a.15.15,0,0,1,.13,0l.06.08,1.16,2.39,1.21-2.39.05-.08h.62m0-.28h-.49a.43.43,0,0,0-.32.14l-.09.14-1,1.93-1-1.93-.1-.14a.43.43,0,0,0-.32-.14h-.48a.42.42,0,0,0-.3.13.47.47,0,0,0-.12.32v4.33a.39.39,0,0,0,.12.31.42.42,0,0,0,.3.13h.52a.39.39,0,0,0,.28-.13.43.43,0,0,0,.12-.31V62l.38.76a.45.45,0,0,0,.14.19.41.41,0,0,0,.3.11h.25A.49.49,0,0,0,25,63a.94.94,0,0,0,.14-.19l.38-.77v1.74a.46.46,0,0,0,.11.3.35.35,0,0,0,.3.14h.52a.41.41,0,0,0,.29-.13.43.43,0,0,0,.12-.31V59.41a.47.47,0,0,0-.12-.32.41.41,0,0,0-.29-.13Z" fill="#fff"/><path d="M30.67,64a.25.25,0,0,1-.22-.09.22.22,0,0,1-.08-.13l-.26-.72H28.48l-.25.72a.3.3,0,0,1-.09.13.25.25,0,0,1-.21.09h-.54a.23.23,0,0,1-.18-.08.24.24,0,0,1-.08-.2.2.2,0,0,1,0-.11l1.54-4.29a.25.25,0,0,1,.11-.17A.32.32,0,0,1,29,59.1h.66a.33.33,0,0,1,.23.09,1,1,0,0,1,.11.17l1.47,4.27h0v.09a.32.32,0,0,1-.07.2.25.25,0,0,1-.18.08Zm-.87-2-.52-1.51L28.77,62Z" fill="#1f2445"/><path d="M29.67,59.24a.33.33,0,0,1,.14,0l.08.12,1.49,4.29v.06a.17.17,0,0,1,0,.1h-.71a.13.13,0,0,1-.13-.05.11.11,0,0,1,0-.08l-.29-.81H28.4l-.3.81s0,.07-.05.08a.15.15,0,0,1-.12.05H27.3a.09.09,0,0,1,0-.1.06.06,0,0,1,0-.06l1.49-4.29a.37.37,0,0,1,.07-.12.38.38,0,0,1,.15,0h.66m-1,3h1.4l-.7-2.06-.7,2.06m1-3.24H29a.47.47,0,0,0-.32.12.61.61,0,0,0-.15.24L27,63.63a.43.43,0,0,0,0,.16.39.39,0,0,0,.12.3.34.34,0,0,0,.27.12H28a.38.38,0,0,0,.31-.13.54.54,0,0,0,.11-.18l.22-.63h1.48l.23.63a.42.42,0,0,0,.11.18.37.37,0,0,0,.31.13h.54a.36.36,0,0,0,.27-.12.46.46,0,0,0,.11-.3v-.12h0l-1.49-4.29a.64.64,0,0,0-.14-.22A.48.48,0,0,0,29.7,59ZM29,62l.33-1,.33,1Z" fill="#fff"/><path d="M34.67,64a.32.32,0,0,1-.25-.1.33.33,0,0,1-.11-.15l-.76-1.51H32.9v1.46a.32.32,0,0,1-.08.21.27.27,0,0,1-.2.09h-.56a.25.25,0,0,1-.2-.09.24.24,0,0,1-.08-.21V59.41a.27.27,0,0,1,.08-.22.25.25,0,0,1,.19-.09h1.62a1.93,1.93,0,0,1,1.26.41,1.48,1.48,0,0,1,.48,1.19,1.59,1.59,0,0,1-.25.9,1.43,1.43,0,0,1-.52.46l.85,1.57a.33.33,0,0,1,0,.14.28.28,0,0,1-.08.2.25.25,0,0,1-.18.08Zm-1-2.79a.72.72,0,0,0,.47-.14.57.57,0,0,0,.15-.42.6.6,0,0,0-.15-.42.67.67,0,0,0-.47-.15h-.74v1.13Z" fill="#1f2445"/><path d="M33.67,59.24a1.8,1.8,0,0,1,1.2.39,1.42,1.42,0,0,1,.43,1.08,1.4,1.4,0,0,1-.23.82,1.26,1.26,0,0,1-.6.47l.9,1.7a.09.09,0,0,1,0,.07.17.17,0,0,1,0,.1.14.14,0,0,1-.09,0h-.61a.19.19,0,0,1-.16-.06.27.27,0,0,1-.09-.12l-.75-1.55h-.85v1.6a.2.2,0,0,1,0,.11.16.16,0,0,1-.11,0h-.57a.12.12,0,0,1-.1,0,.11.11,0,0,1,0-.11V59.41a.13.13,0,0,1,0-.12h1.63m-.89,2.15h.89a.77.77,0,0,0,.56-.18.72.72,0,0,0,.19-.52.81.81,0,0,0-.19-.52.83.83,0,0,0-.56-.19H32.8v1.41M33.67,59h-1.6a.39.39,0,0,0-.29.13.47.47,0,0,0-.12.32v4.33a.39.39,0,0,0,.12.31.36.36,0,0,0,.29.13h.6A.41.41,0,0,0,33,64a.46.46,0,0,0,.11-.3V62.42h.44l.72,1.43a.8.8,0,0,0,.13.19.46.46,0,0,0,.35.14h.56a.36.36,0,0,0,.27-.12.42.42,0,0,0,.12-.3.67.67,0,0,0,0-.2h0l-.76-1.44a1.6,1.6,0,0,0,.44-.42,1.74,1.74,0,0,0,.28-1,1.64,1.64,0,0,0-.53-1.3A2.07,2.07,0,0,0,33.67,59ZM33,60.26h.63a.58.58,0,0,1,.38.11.47.47,0,0,1,.1.32c0,.19,0,.27-.1.31a.49.49,0,0,1-.38.11h-.61v-.85Z" fill="#fff"/><path d="M37.76,64.1a2.27,2.27,0,0,1-1-.2,1.52,1.52,0,0,1-.68-.67,2.36,2.36,0,0,1-.26-1.08V61a2.43,2.43,0,0,1,.27-1.08,1.6,1.6,0,0,1,.68-.66,2.15,2.15,0,0,1,1-.22,2.18,2.18,0,0,1,1,.22,1.73,1.73,0,0,1,.68.66A2.38,2.38,0,0,1,39.67,61v1.15a2.36,2.36,0,0,1-.26,1.08,1.52,1.52,0,0,1-.68.67A2.34,2.34,0,0,1,37.76,64.1Zm0-4a.8.8,0,0,0-.41.1.61.61,0,0,0-.26.29,1.15,1.15,0,0,0-.12.57v1.07a1,1,0,0,0,.23.73.81.81,0,0,0,1.12,0,1.1,1.1,0,0,0,.24-.74V61.06a1.42,1.42,0,0,0-.12-.57.69.69,0,0,0-.27-.29.88.88,0,0,0-.41-.12Z" fill="#1f2445"/><path d="M37.76,59.18a2.29,2.29,0,0,1,.93.2,1.63,1.63,0,0,1,.63.62,2.18,2.18,0,0,1,.25,1v1.13a2.3,2.3,0,0,1-.24,1,1.41,1.41,0,0,1-.62.61,2.41,2.41,0,0,1-1.9,0,1.31,1.31,0,0,1-.62-.61,2.45,2.45,0,0,1-.24-1V61a2.18,2.18,0,0,1,.25-1,1.51,1.51,0,0,1,.63-.62,2.13,2.13,0,0,1,.93-.2m0,4a.85.85,0,0,0,.65-.26,1.25,1.25,0,0,0,.28-.83V61a2,2,0,0,0-.14-.63,1,1,0,0,0-.32-.35,1.12,1.12,0,0,0-.47-.11,1,1,0,0,0-.47.11.89.89,0,0,0-.32.35,1.55,1.55,0,0,0-.13.63V62.1a1.14,1.14,0,0,0,.27.83.83.83,0,0,0,.65.26m0-4.3a2.29,2.29,0,0,0-1,.23,1.66,1.66,0,0,0-.74.72A2.49,2.49,0,0,0,35.67,61v1.15A2.54,2.54,0,0,0,36,63.3a1.59,1.59,0,0,0,.73.72,2.61,2.61,0,0,0,2.12,0,1.59,1.59,0,0,0,.73-.72,2.54,2.54,0,0,0,.28-1.15V61a2.38,2.38,0,0,0-.29-1.14,1.77,1.77,0,0,0-.74-.72,2.36,2.36,0,0,0-1-.23Zm0,4a.58.58,0,0,1-.47-.18.92.92,0,0,1-.19-.64V61a1.09,1.09,0,0,1,.1-.5.49.49,0,0,1,.21-.24.85.85,0,0,1,.7,0,.61.61,0,0,1,.21.24,1.45,1.45,0,0,1,.11.5v1.06a1,1,0,0,1-.19.64A.63.63,0,0,1,37.76,62.89Z" fill="#fff"/><path d="M42.06,64.1a2,2,0,0,1-1-.23,1.55,1.55,0,0,1-.67-.67,2.31,2.31,0,0,1-.25-1V61a2.32,2.32,0,0,1,.26-1,1.5,1.5,0,0,1,.66-.68,2.29,2.29,0,0,1,1-.23,2.71,2.71,0,0,1,.79.12,2.28,2.28,0,0,1,.62.36,1.69,1.69,0,0,1,.39.53,1.56,1.56,0,0,1,.15.67.26.26,0,0,1-.26.28h-.58A.24.24,0,0,1,43,61a.26.26,0,0,1-.1-.2.85.85,0,0,0-.29-.51.92.92,0,0,0-.53-.14.79.79,0,0,0-.57.21,1.07,1.07,0,0,0-.22.73,10.09,10.09,0,0,0,0,1.1,1.07,1.07,0,0,0,.22.73.75.75,0,0,0,.57.21.92.92,0,0,0,.53-.14.85.85,0,0,0,.29-.51.28.28,0,0,1,.11-.21.31.31,0,0,1,.19-.06h.58a.27.27,0,0,1,.19.08.29.29,0,0,1,.07.22,1.44,1.44,0,0,1-.15.65,1.59,1.59,0,0,1-.39.53,2,2,0,0,1-.62.36A2.14,2.14,0,0,1,42.06,64.1Z" fill="#1f2445"/><path d="M42.06,59.18a2.4,2.4,0,0,1,.75.12,1.64,1.64,0,0,1,.57.33,1.42,1.42,0,0,1,.5,1.09.17.17,0,0,1,0,.1.09.09,0,0,1-.1,0h-.61a.13.13,0,0,1-.12,0A.23.23,0,0,1,43,60.7a1,1,0,0,0-.34-.6,1.15,1.15,0,0,0-.6-.16,1,1,0,0,0-.66.25,1.17,1.17,0,0,0-.26.82,10.46,10.46,0,0,0,0,1.12,1.16,1.16,0,0,0,.26.82.88.88,0,0,0,.66.25,1,1,0,0,0,.6-.16.94.94,0,0,0,.34-.6.34.34,0,0,1,.06-.12h.8a.17.17,0,0,1,0,.1,1.49,1.49,0,0,1-1.07,1.43A2.43,2.43,0,0,1,42,64a1.92,1.92,0,0,1-1-.21,1.41,1.41,0,0,1-.61-.62,2.17,2.17,0,0,1-.24-1V61a2.2,2.2,0,0,1,.24-1,1.54,1.54,0,0,1,.61-.63,2.14,2.14,0,0,1,1-.21m0-.28A2.22,2.22,0,0,0,41,59.1a1.74,1.74,0,0,0-.73.74A2.58,2.58,0,0,0,40,60.93v1.2a2.62,2.62,0,0,0,.27,1.1,1.75,1.75,0,0,0,.72.73A2.26,2.26,0,0,0,42,64.2a2.42,2.42,0,0,0,.84-.13,1.86,1.86,0,0,0,.65-.38,1.76,1.76,0,0,0,.43-.58,1.89,1.89,0,0,0,.16-.71.42.42,0,0,0-.11-.32.44.44,0,0,0-.28-.12h-.55a.42.42,0,0,0-.27.09.45.45,0,0,0-.16.29.69.69,0,0,1-.22.42.79.79,0,0,1-.47.12.65.65,0,0,1-.48-.17.94.94,0,0,1-.18-.63V61a.87.87,0,0,1,.18-.62.64.64,0,0,1,.48-.18,1,1,0,0,1,.47.12.72.72,0,0,1,.22.43.49.49,0,0,0,.15.27.35.35,0,0,0,.28.1h.58A.43.43,0,0,0,44,61a.44.44,0,0,0,.11-.33A1.93,1.93,0,0,0,44,60a1.76,1.76,0,0,0-.43-.58A2.22,2.22,0,0,0,42.9,59a2.68,2.68,0,0,0-.84-.13Z" fill="#fff"/><line x1="68.29" y1="39.76" x2="273.8" y2="39.76" fill="none" stroke="#dc2e31" stroke-miterlimit="10"/><path d="M68.22,49.9V44.52h.71v4.75h2.66v.63Z" fill="#30358c"/><path d="M71.84,49.9l2.07-5.38h.77l2.2,5.38h-.81l-.63-1.63H73.19L72.6,49.9Zm1.56-2.21h1.82l-.56-1.49c-.17-.45-.3-.83-.38-1.12a7.14,7.14,0,0,1-.29,1Z" fill="#30358c"/><path d="M77.42,49.9V44.52h2a2.5,2.5,0,0,1,1,.16,1.31,1.31,0,0,1,.59.5,1.37,1.37,0,0,1,.21.71,1.23,1.23,0,0,1-.19.65,1.21,1.21,0,0,1-.57.49,1.46,1.46,0,0,1,.76.49,1.36,1.36,0,0,1,.26.82,1.56,1.56,0,0,1-.16.7,1.28,1.28,0,0,1-.4.5,1.52,1.52,0,0,1-.59.27,3.49,3.49,0,0,1-.86.09Zm.71-3.12H79.3a2.75,2.75,0,0,0,.68-.06.82.82,0,0,0,.41-.27.79.79,0,0,0,.14-.47,1,1,0,0,0-.13-.47.64.64,0,0,0-.37-.28,3,3,0,0,0-.82-.08H78.13Zm0,2.49h1.34a2.7,2.7,0,0,0,.49,0,1.07,1.07,0,0,0,.41-.15.66.66,0,0,0,.27-.3.88.88,0,0,0,.11-.45.93.93,0,0,0-.15-.52.83.83,0,0,0-.43-.31,2.72,2.72,0,0,0-.79-.09H78.13Z" fill="#30358c"/><path d="M82.25,47.28a2.94,2.94,0,0,1,.72-2.1,2.44,2.44,0,0,1,1.86-.76,2.54,2.54,0,0,1,1.34.36,2.31,2.31,0,0,1,.92,1,3.25,3.25,0,0,1,.31,1.45,3.17,3.17,0,0,1-.33,1.46,2.23,2.23,0,0,1-.94,1,2.71,2.71,0,0,1-1.3.34,2.59,2.59,0,0,1-1.36-.37,2.37,2.37,0,0,1-.91-1A3,3,0,0,1,82.25,47.28Zm.74,0a2.13,2.13,0,0,0,.52,1.53,1.69,1.69,0,0,0,1.31.56,1.71,1.71,0,0,0,1.32-.56,2.28,2.28,0,0,0,.52-1.61,2.67,2.67,0,0,0-.22-1.14,1.68,1.68,0,0,0-.65-.77,1.81,1.81,0,0,0-1-.27,1.86,1.86,0,0,0-1.3.52A2.35,2.35,0,0,0,83,47.29Z" fill="#30358c"/><path d="M88.33,49.9V44.52h2.39a3.09,3.09,0,0,1,1.09.14,1.25,1.25,0,0,1,.6.51,1.48,1.48,0,0,1,.22.81,1.37,1.37,0,0,1-.36,1,1.89,1.89,0,0,1-1.15.5,1.78,1.78,0,0,1,.43.27,3.33,3.33,0,0,1,.59.71l.94,1.47h-.9l-.71-1.12c-.21-.32-.38-.57-.51-.74a1.73,1.73,0,0,0-.37-.36,1,1,0,0,0-.32-.14,2.69,2.69,0,0,0-.4,0H89V49.9Zm.71-3h1.53a2.24,2.24,0,0,0,.77-.1.84.84,0,0,0,.42-.32A.9.9,0,0,0,91.9,46a.78.78,0,0,0-.28-.63,1.24,1.24,0,0,0-.87-.25H89Z" fill="#30358c"/><path d="M93.16,49.9l2.07-5.38H96L98.2,49.9h-.81l-.63-1.63H94.51l-.59,1.63Zm1.55-2.21h1.83L96,46.2c-.17-.45-.3-.83-.38-1.12a7.14,7.14,0,0,1-.29,1Z" fill="#30358c"/><path d="M99.58,49.9V45.15H97.81v-.63h4.26v.63h-1.78V49.9Z" fill="#30358c"/><path d="M102.45,47.28a2.94,2.94,0,0,1,.72-2.1,2.44,2.44,0,0,1,1.86-.76,2.54,2.54,0,0,1,1.34.36,2.31,2.31,0,0,1,.92,1,3.25,3.25,0,0,1,.31,1.45,3.17,3.17,0,0,1-.33,1.46,2.23,2.23,0,0,1-.94,1A2.7,2.7,0,0,1,105,50a2.58,2.58,0,0,1-1.36-.36,2.34,2.34,0,0,1-.91-1A3.13,3.13,0,0,1,102.45,47.28Zm.74,0a2.13,2.13,0,0,0,.52,1.53,1.7,1.7,0,0,0,1.31.56,1.75,1.75,0,0,0,1.33-.56,2.32,2.32,0,0,0,.51-1.61,2.67,2.67,0,0,0-.22-1.14,1.68,1.68,0,0,0-.65-.77,1.78,1.78,0,0,0-1-.27,1.86,1.86,0,0,0-1.3.52,2.31,2.31,0,0,0-.54,1.74Z" fill="#30358c"/><path d="M108.64,49.9V44.52h.71V49.9Z" fill="#30358c"/><path d="M110.62,49.9V44.52H113a3.09,3.09,0,0,1,1.09.14,1.25,1.25,0,0,1,.6.51,1.49,1.49,0,0,1,.22.82,1.33,1.33,0,0,1-.37,1,1.86,1.86,0,0,1-1.14.5,1.78,1.78,0,0,1,.43.27,3.44,3.44,0,0,1,.59.72l.94,1.46h-.9l-.71-1.12c-.21-.32-.38-.57-.52-.74a1.51,1.51,0,0,0-.36-.36,1,1,0,0,0-.32-.14,2.69,2.69,0,0,0-.4,0h-.83V49.9Zm.71-3h1.54a2.25,2.25,0,0,0,.76-.1.84.84,0,0,0,.42-.32.9.9,0,0,0,.14-.48.78.78,0,0,0-.28-.63,1.24,1.24,0,0,0-.87-.25h-1.71Z" fill="#30358c"/><path d="M116.06,49.9V44.52H120v.63h-3.18V46.8h3v.63h-3v1.83h3.3v.64Z" fill="#30358c"/><path d="M123.15,49.9V44.52H125a4.7,4.7,0,0,1,1,.07,2,2,0,0,1,.79.39,2.13,2.13,0,0,1,.64.92,4,4,0,0,1,.06,2.37,2.56,2.56,0,0,1-.36.78,2.07,2.07,0,0,1-.49.49,2,2,0,0,1-.65.27,4.12,4.12,0,0,1-.86.09Zm.71-.63H125a3,3,0,0,0,.83-.1,1.22,1.22,0,0,0,.49-.28,1.67,1.67,0,0,0,.39-.68,3.19,3.19,0,0,0,.14-1,2.57,2.57,0,0,0-.27-1.3,1.46,1.46,0,0,0-.68-.61,2.88,2.88,0,0,0-.92-.11h-1.13Z" fill="#30358c"/><path d="M128.45,45.23v-.77h.71v.61a1.74,1.74,0,0,1-.11.71,1,1,0,0,1-.49.44L128.4,46a.57.57,0,0,0,.29-.26,1,1,0,0,0,.11-.48Z" fill="#30358c"/><path d="M130.27,49.9V44.52h3.89v.63H131V46.8h3v.63h-3v1.83h3.3v.64Z" fill="#30358c"/><path d="M136.64,49.9V45.15h-1.78v-.63h4.27v.63h-1.78V49.9Z" fill="#30358c"/><path d="M143.4,44.52h.71v3.11a3.51,3.51,0,0,1-.19,1.29,1.53,1.53,0,0,1-.66.77A2.35,2.35,0,0,1,142,50a2.56,2.56,0,0,1-1.24-.26,1.46,1.46,0,0,1-.68-.75,3.53,3.53,0,0,1-.21-1.35V44.52h.72v3.11a3,3,0,0,0,.13,1,.94.94,0,0,0,.45.51,1.54,1.54,0,0,0,.77.18,1.46,1.46,0,0,0,1.12-.36,2,2,0,0,0,.34-1.36Z" fill="#30358c"/><path d="M145.29,49.9V44.52h1.86a4.7,4.7,0,0,1,1,.07,2,2,0,0,1,.79.39,2.2,2.2,0,0,1,.63.92,4.14,4.14,0,0,1,.07,2.37,2.57,2.57,0,0,1-.37.78,1.76,1.76,0,0,1-.49.49,1.82,1.82,0,0,1-.64.27,4.12,4.12,0,0,1-.86.09Zm.72-.63h1.15a3,3,0,0,0,.83-.1,1.29,1.29,0,0,0,.49-.28,1.79,1.79,0,0,0,.39-.68,3.49,3.49,0,0,0,.14-1,2.57,2.57,0,0,0-.27-1.3,1.46,1.46,0,0,0-.68-.61,2.88,2.88,0,0,0-.92-.11H146Z" fill="#30358c"/><path d="M150.74,49.9V44.52h3.89v.63h-3.18V46.8h3v.63h-3v1.83h3.31v.64Z" fill="#30358c"/><path d="M155.5,48.17l.67-.06a1.61,1.61,0,0,0,.23.67,1.11,1.11,0,0,0,.54.41,1.94,1.94,0,0,0,.82.16,1.76,1.76,0,0,0,.72-.12,1,1,0,0,0,.47-.33.75.75,0,0,0,.15-.46A.69.69,0,0,0,159,48a1.06,1.06,0,0,0-.48-.32,8.43,8.43,0,0,0-1-.26,4.79,4.79,0,0,1-1-.34,1.41,1.41,0,0,1-.57-.5,1.21,1.21,0,0,1-.19-.67,1.36,1.36,0,0,1,.23-.76,1.38,1.38,0,0,1,.68-.54,2.55,2.55,0,0,1,1-.19,2.71,2.71,0,0,1,1.06.2,1.58,1.58,0,0,1,.7.56,1.64,1.64,0,0,1,.27.85l-.69.06a1.11,1.11,0,0,0-.37-.78,1.46,1.46,0,0,0-.94-.26,1.49,1.49,0,0,0-.94.24.71.71,0,0,0-.3.57.65.65,0,0,0,.21.48,2.76,2.76,0,0,0,1.08.39,7,7,0,0,1,1.19.34,1.62,1.62,0,0,1,.69.55,1.38,1.38,0,0,1,.23.76,1.46,1.46,0,0,1-.25.81,1.57,1.57,0,0,1-.7.59,2.51,2.51,0,0,1-1,.21,3.16,3.16,0,0,1-1.23-.21,1.71,1.71,0,0,1-.77-.64A1.85,1.85,0,0,1,155.5,48.17Z" fill="#30358c"/><path d="M162.87,49.9V44.52h3.89v.63h-3.18V46.8h3v.63h-3v1.83h3.3v.64Z" fill="#30358c"/><path d="M169.24,49.9V45.15h-1.78v-.63h4.27v.63H170V49.9Z" fill="#30358c"/><path d="M174.42,49.9V44.52h1.85a4.7,4.7,0,0,1,1,.07A2,2,0,0,1,178,45a2.19,2.19,0,0,1,.64.92,4,4,0,0,1,.06,2.37,2.56,2.56,0,0,1-.36.78,2.07,2.07,0,0,1-.49.49,2,2,0,0,1-.65.27,4.12,4.12,0,0,1-.86.09Zm.71-.63h1.15a3.05,3.05,0,0,0,.84-.1,1.24,1.24,0,0,0,.48-.28,1.67,1.67,0,0,0,.39-.68,3.47,3.47,0,0,0,.15-1,2.56,2.56,0,0,0-.28-1.3,1.46,1.46,0,0,0-.68-.61,2.84,2.84,0,0,0-.92-.11h-1.13Z" fill="#30358c"/><path d="M179.86,49.9V44.52h3.9v.63h-3.18V46.8h3v.63h-3v1.83h3.3v.64Z" fill="#30358c"/><path d="M190.8,48l.71.18a2.36,2.36,0,0,1-.81,1.34,2.2,2.2,0,0,1-1.42.46,2.56,2.56,0,0,1-1.42-.35,2.26,2.26,0,0,1-.83-1,3.7,3.7,0,0,1-.28-1.44,3.25,3.25,0,0,1,.32-1.47,2.25,2.25,0,0,1,.91-1,2.6,2.6,0,0,1,1.31-.32,2.18,2.18,0,0,1,1.36.41,2.15,2.15,0,0,1,.77,1.15l-.7.17a1.71,1.71,0,0,0-.55-.86,1.41,1.41,0,0,0-.89-.27,1.73,1.73,0,0,0-1,.3,1.55,1.55,0,0,0-.58.8,3,3,0,0,0-.17,1,3.21,3.21,0,0,0,.2,1.2,1.47,1.47,0,0,0,.62.76,1.62,1.62,0,0,0,.91.25,1.55,1.55,0,0,0,1-.34A1.81,1.81,0,0,0,190.8,48Z" fill="#30358c"/><path d="M192.17,47.28a2.94,2.94,0,0,1,.72-2.1,2.44,2.44,0,0,1,1.86-.76,2.54,2.54,0,0,1,1.34.36,2.31,2.31,0,0,1,.92,1,3.25,3.25,0,0,1,.31,1.45,3.17,3.17,0,0,1-.33,1.46,2.23,2.23,0,0,1-.94,1,2.7,2.7,0,0,1-1.3.33,2.58,2.58,0,0,1-1.36-.36,2.34,2.34,0,0,1-.91-1A3,3,0,0,1,192.17,47.28Zm.74,0a2.13,2.13,0,0,0,.52,1.53,1.7,1.7,0,0,0,1.31.56,1.75,1.75,0,0,0,1.33-.56,2.37,2.37,0,0,0,.52-1.61,2.66,2.66,0,0,0-.23-1.14,1.68,1.68,0,0,0-.65-.77,1.78,1.78,0,0,0-1-.27,1.86,1.86,0,0,0-1.3.52,2.35,2.35,0,0,0-.55,1.74Z" fill="#30358c"/><path d="M198.23,49.9V44.52H199l2.83,4.22V44.52h.68V49.9h-.73l-2.83-4.23V49.9Z" fill="#30358c"/><path d="M205,49.9V45.15h-1.77v-.63h4.26v.63h-1.78V49.9Z" fill="#30358c"/><path d="M208.28,49.9V44.52h2.39a3.09,3.09,0,0,1,1.09.14,1.25,1.25,0,0,1,.6.51,1.48,1.48,0,0,1,.22.81,1.34,1.34,0,0,1-.37,1,1.89,1.89,0,0,1-1.14.5,1.69,1.69,0,0,1,.42.27,3.7,3.7,0,0,1,.6.71L213,49.9h-.89l-.72-1.12a7.41,7.41,0,0,0-.51-.74,2,2,0,0,0-.36-.36.81.81,0,0,0-.33-.14,1.71,1.71,0,0,0-.39,0H209V49.9Zm.71-3h1.53a2.28,2.28,0,0,0,.77-.1.81.81,0,0,0,.41-.32.83.83,0,0,0,.15-.48.84.84,0,0,0-.28-.63,1.27,1.27,0,0,0-.88-.25H209Z" fill="#30358c"/><path d="M213.48,47.28a2.94,2.94,0,0,1,.72-2.1,2.44,2.44,0,0,1,1.86-.76,2.54,2.54,0,0,1,1.34.36,2.31,2.31,0,0,1,.92,1,3.25,3.25,0,0,1,.31,1.45,3.17,3.17,0,0,1-.33,1.46,2.23,2.23,0,0,1-.94,1,2.7,2.7,0,0,1-1.3.33,2.5,2.5,0,0,1-1.36-.37,2.26,2.26,0,0,1-.91-1A3.13,3.13,0,0,1,213.48,47.28Zm.74,0a2.13,2.13,0,0,0,.52,1.53,1.69,1.69,0,0,0,1.31.56,1.71,1.71,0,0,0,1.32-.56,2.28,2.28,0,0,0,.52-1.61,2.67,2.67,0,0,0-.22-1.14,1.68,1.68,0,0,0-.65-.77,1.78,1.78,0,0,0-1-.27,1.86,1.86,0,0,0-1.3.52,2.31,2.31,0,0,0-.54,1.74Z" fill="#30358c"/><path d="M219.52,49.9V44.52h.71v4.75h2.65v.63Z" fill="#30358c"/><path d="M223.75,49.9V44.52h3.89v.63h-3.18V46.8h3v.63h-3v1.83h3.31v.64Z" fill="#30358c"/><path d="M231,49.9V44.52h.71V49.9Z" fill="#30358c"/><path d="M232.92,49.9V44.52h.73l2.83,4.22V44.52h.68V49.9h-.73l-2.83-4.23V49.9Z" fill="#30358c"/><path d="M238.36,49.9V44.52h1.85a4.7,4.7,0,0,1,1,.07A2,2,0,0,1,242,45a2.13,2.13,0,0,1,.64.92,3.62,3.62,0,0,1,.21,1.28,4,4,0,0,1-.14,1.09,2.83,2.83,0,0,1-.37.78,1.81,1.81,0,0,1-1.13.76,4.28,4.28,0,0,1-.87.09Zm.71-.63h1.15a3,3,0,0,0,.84-.1,1.24,1.24,0,0,0,.48-.28,1.8,1.8,0,0,0,.4-.68,3.49,3.49,0,0,0,.14-1,2.46,2.46,0,0,0-.28-1.3,1.44,1.44,0,0,0-.67-.61,2.91,2.91,0,0,0-.93-.11h-1.13Z" fill="#30358c"/><path d="M247.33,44.52H248v3.11a3.51,3.51,0,0,1-.19,1.29,1.53,1.53,0,0,1-.66.77,2.35,2.35,0,0,1-1.26.3,2.56,2.56,0,0,1-1.24-.26A1.46,1.46,0,0,1,244,49a3.53,3.53,0,0,1-.21-1.35V44.52h.71v3.11a3.22,3.22,0,0,0,.13,1,1,1,0,0,0,.45.51,1.55,1.55,0,0,0,.78.18A1.48,1.48,0,0,0,247,49a2,2,0,0,0,.33-1.36Z" fill="#30358c"/><path d="M249,48.17l.67-.06a1.61,1.61,0,0,0,.23.67,1.11,1.11,0,0,0,.54.41,1.94,1.94,0,0,0,.82.16,1.76,1.76,0,0,0,.72-.12,1,1,0,0,0,.47-.33.75.75,0,0,0,.15-.46.68.68,0,0,0-.14-.44,1,1,0,0,0-.49-.32,6.67,6.67,0,0,0-1-.26,4.79,4.79,0,0,1-1-.34,1.41,1.41,0,0,1-.57-.5,1.21,1.21,0,0,1-.19-.67,1.36,1.36,0,0,1,.23-.76,1.42,1.42,0,0,1,.68-.54,2.57,2.57,0,0,1,1-.19,2.66,2.66,0,0,1,1,.2,1.48,1.48,0,0,1,.71.56,1.73,1.73,0,0,1,.26.85l-.68.06a1.1,1.1,0,0,0-.38-.78,1.45,1.45,0,0,0-.93-.26,1.51,1.51,0,0,0-1,.24.73.73,0,0,0-.29.57.58.58,0,0,0,.21.48,2.78,2.78,0,0,0,1.07.39,6.69,6.69,0,0,1,1.19.34,1.6,1.6,0,0,1,.7.55,1.28,1.28,0,0,1,.22.76,1.46,1.46,0,0,1-.25.81,1.52,1.52,0,0,1-.7.59,2.33,2.33,0,0,1-1,.22,3.09,3.09,0,0,1-1.22-.22,1.68,1.68,0,0,1-.78-.64A1.85,1.85,0,0,1,249,48.17Z" fill="#30358c"/><path d="M255.61,49.9V45.15h-1.77v-.63h4.27v.63h-1.79V49.9Z" fill="#30358c"/><path d="M258.85,49.9V44.52h2.38a3.15,3.15,0,0,1,1.1.14,1.25,1.25,0,0,1,.6.51,1.57,1.57,0,0,1,.22.81,1.34,1.34,0,0,1-.37,1,1.89,1.89,0,0,1-1.15.5,1.6,1.6,0,0,1,.43.27,3.33,3.33,0,0,1,.59.71l.94,1.47h-.89L262,48.78c-.21-.32-.38-.57-.51-.74a2,2,0,0,0-.36-.36.81.81,0,0,0-.33-.14,1.75,1.75,0,0,0-.4,0h-.82V49.9Zm.71-3h1.53a2.18,2.18,0,0,0,.76-.1.8.8,0,0,0,.42-.32.83.83,0,0,0,.15-.48.84.84,0,0,0-.28-.63,1.27,1.27,0,0,0-.88-.25h-1.7Z" fill="#30358c"/><path d="M264.39,49.9V44.52h.71V49.9Z" fill="#30358c"/><path d="M266.37,49.9V44.52h3.9v.63h-3.18V46.8h3v.63h-3v1.83h3.3v.64Z" fill="#30358c"/><path d="M271.35,49.9V44.52h.71v4.75h2.65v.63Z" fill="#30358c"/><path d="M75.31,34.7H74.07A1.33,1.33,0,0,1,73,34a4.2,4.2,0,0,1-.57-1.31,1.73,1.73,0,0,1-.66.48,2,2,0,0,1-.84.17,12.84,12.84,0,0,1-1.66-.08c-.45-.06-.67-.13-.67-.22,0-.32.33-.67,1-1.06A11.19,11.19,0,0,1,72,31s0-.1-.08-.23a1.55,1.55,0,0,1,0-.23.63.63,0,0,1,.2-.42,2.32,2.32,0,0,1,.44-.39q.09.34.18.66c.06.22.13.44.21.67l.26.95a7.45,7.45,0,0,0,.39,1.17c.18.38.36.57.55.57h1.24Zm-4.19-6.12-.66.8-1.4-.46.64-.8Zm1.17,3.65-.17-.6a6.37,6.37,0,0,0-1.19.36,2.21,2.21,0,0,0-.73.48,2.07,2.07,0,0,0,.42.08c.23,0,.45,0,.68,0a1.68,1.68,0,0,0,1-.35Zm.82-4.15-.68.8L71,28.4l.65-.79Z" fill="#372d73"/><path d="M79.63,34.7H74.7v-1H79a1.76,1.76,0,0,0-.24-1,3.68,3.68,0,0,0-.82-.69l.68-.9a3.32,3.32,0,0,1,.77.79,3.18,3.18,0,0,1,.23,1.41Zm-2,1.6-.66.81-1.41-.47.64-.8Zm2-.49-.67.8-1.4-.48.65-.79Z" fill="#372d73"/><path d="M88,33l-.6,1a29.68,29.68,0,0,1-3,.51,28.2,28.2,0,0,1-3.16.2H79v-1H81.1a2.19,2.19,0,0,1-.4-.59,1.59,1.59,0,0,1-.16-.64c0-.44.29-.8.86-1.1A4.79,4.79,0,0,1,83.59,31a4,4,0,0,1,1.75.33,6.47,6.47,0,0,1,1,.68l-.16.1c-.4-.07-.76-.13-1.08-.16a6.57,6.57,0,0,0-1-.05,8.35,8.35,0,0,0-1.87.16c-.45.12-.68.26-.68.45s.14.38.43.61a4.17,4.17,0,0,0,1.1.59c1-.09,1.72-.18,2.33-.26S86.88,33.19,88,33Z" fill="#372d73"/><path d="M93,34.7H91.8a1.41,1.41,0,0,1-.94-.3,1.58,1.58,0,0,1-.47-.79,7.33,7.33,0,0,1-.25-1.3c0-.42-.07-.84-.11-1.28a6.35,6.35,0,0,0-.15-1,1.86,1.86,0,0,0-.24-.56,1.88,1.88,0,0,0-.53-.47l1.07-1.07a5.23,5.23,0,0,1,.47,1.59q.09.57.18,2.73a2.33,2.33,0,0,0,.45,1.26.77.77,0,0,0,.53.23H93Z" fill="#372d73"/><path d="M97.35,34.7H92.42v-1h4.31a1.76,1.76,0,0,0-.24-1,3.68,3.68,0,0,0-.82-.69l.68-.9a3.32,3.32,0,0,1,.77.79,3.18,3.18,0,0,1,.23,1.41Zm-.68-5.12-.66.81-1.4-.47.64-.8Z" fill="#372d73"/><path d="M112.35,34.7H102a3.94,3.94,0,0,1-.9-.1,5.43,5.43,0,0,1-.75-.24,3,3,0,0,1-.73.27,6.39,6.39,0,0,1-1.16.07H96.74v-1h1.68a4.76,4.76,0,0,0,1-.07c.33-.09.5-.26.5-.51a1.84,1.84,0,0,0,0-.33,2.37,2.37,0,0,0-.09-.36l.35-.33a2.88,2.88,0,0,0,.83,1.17,2.12,2.12,0,0,0,1.33.43,8.42,8.42,0,0,0,1.71-.21,8.79,8.79,0,0,0,1.81-.57l1.52-.68a8.17,8.17,0,0,1,1.27-.41,6.58,6.58,0,0,1,1.4-.13,3,3,0,0,1,1.78.43,1.33,1.33,0,0,1,.55,1.14ZM111,33.32c0-.18-.18-.32-.53-.43a4.5,4.5,0,0,0-1.23-.15,7.38,7.38,0,0,0-2.1.37l-2,.63h4a6.45,6.45,0,0,0,1.37-.1c.29-.07.44-.18.44-.32Z" fill="#372d73"/><path d="M116,34.7h-4.28v-1h3.41L114.1,29l-.45-.14a2.44,2.44,0,0,1,.1-.71,2.4,2.4,0,0,1,.32-.64l.13.06c0,.21.19.37.56.48l.89.22a4,4,0,0,1-.07.59,1.48,1.48,0,0,1-.17.46l-.41-.09,1,4.36Z" fill="#372d73"/><path d="M118.94,33.29a1.65,1.65,0,0,1-.25.86,4.83,4.83,0,0,1-.55.7L118,34.8c0-.11,0-.23,0-.38s0-.23,0-.28a12.05,12.05,0,0,0-.15-1.61c-.09-.69-.2-1.41-.34-2.15-.08-.46-.17-.92-.26-1.39.11-.17.24-.34.39-.53l.42-.53c.09.42.21,1,.35,1.73s.25,1.39.33,2A13.29,13.29,0,0,1,118.94,33.29Z" fill="#372d73"/><path d="M130.78,34.7h-1.24a1.33,1.33,0,0,1-1.1-.68,4,4,0,0,1-.57-1.31,1.73,1.73,0,0,1-.66.48,2,2,0,0,1-.84.17,14.94,14.94,0,0,1-1.66-.08c-.45-.06-.67-.13-.67-.22,0-.32.32-.67,1-1.06a11.19,11.19,0,0,1,2.43-1s0-.1-.08-.23a1.55,1.55,0,0,1,0-.23.63.63,0,0,1,.2-.42,2.32,2.32,0,0,1,.44-.39c.06.23.11.45.17.66s.14.44.22.67l.26.95a7.45,7.45,0,0,0,.39,1.17c.18.38.36.57.55.57h1.24Zm-4.19-6.12-.66.8-1.41-.46.65-.8Zm1.16,3.65-.16-.6a6.14,6.14,0,0,0-1.19.36,2,2,0,0,0-.73.48,2.07,2.07,0,0,0,.42.08c.22,0,.45,0,.67,0a1.64,1.64,0,0,0,1-.35Zm.82-4.15-.67.8-1.39-.48.64-.79Z" fill="#372d73"/><path d="M135.1,34.7h-4.94v-1h4.32a1.76,1.76,0,0,0-.25-1,3.55,3.55,0,0,0-.81-.69l.68-.9a3.54,3.54,0,0,1,.77.79,3.18,3.18,0,0,1,.23,1.41ZM134.21,36l-.67.8-1.39-.46.64-.8Z" fill="#372d73"/><path d="M139.84,34.7h-5.35v-1h4.62a2.43,2.43,0,0,0-.18-.92l-.7.14a4,4,0,0,1-.7.06,2.33,2.33,0,0,1-1-.2.73.73,0,0,1-.46-.67,2.15,2.15,0,0,1,.43-1.34,1.51,1.51,0,0,1,1.26-.64,1.78,1.78,0,0,1,1.63,1,4.17,4.17,0,0,1,.48,2.05Zm-2.28-5.78-.66.8-1.4-.47.64-.8Zm.87,2.91a1.61,1.61,0,0,0-.39-.4,1.21,1.21,0,0,0-.69-.28.61.61,0,0,0-.39.13.36.36,0,0,0-.15.29c0,.3.25.45.76.45A1.54,1.54,0,0,0,138,32a2.13,2.13,0,0,0,.43-.13Zm1.12-3.41-.67.8-1.4-.48.65-.79Z" fill="#372d73"/><path d="M142.76,33.29a1.65,1.65,0,0,1-.25.86,4.83,4.83,0,0,1-.55.7l-.16-.05c0-.11,0-.23,0-.38s0-.23,0-.28a13.57,13.57,0,0,0-.14-1.61c-.1-.69-.21-1.41-.35-2.15-.08-.46-.17-.92-.26-1.39.11-.17.24-.34.39-.53l.42-.53c.09.42.21,1,.35,1.73s.25,1.39.33,2A13.29,13.29,0,0,1,142.76,33.29Z" fill="#372d73"/><path d="M152.18,34.7a1.73,1.73,0,0,1-.81,1.26,6.34,6.34,0,0,1-1.77,1,4.63,4.63,0,0,1-1.65.4,8,8,0,0,1-1.29-.11c-.35-.06-.77-.14-1.26-.26l-1.24-.31.15-.22,1.19.15a8.32,8.32,0,0,0,1.12.08,6.57,6.57,0,0,0,2.31-.45,6.64,6.64,0,0,0,1.86-1c.51-.42.77-.8.77-1.14a1.45,1.45,0,0,0-.4-.92,4.6,4.6,0,0,0-.9-.8l.49-.87a3.84,3.84,0,0,1,1.05.84,1.69,1.69,0,0,1,.38,1.07Z" fill="#372d73"/><path d="M159.16,34.7h-.9a6,6,0,0,1-1.31-.16,6.33,6.33,0,0,1-1.47-.53,3.1,3.1,0,0,1-1,.54,5.91,5.91,0,0,1-1.53.15h-1.35v-1h1.32a3.66,3.66,0,0,0,1.41-.25,3.11,3.11,0,0,0,.86-.56,5.13,5.13,0,0,1,1.3-.85,5,5,0,0,1,1.27-.41,9.17,9.17,0,0,1,1,1,1.89,1.89,0,0,1,.48,1Zm-1-1.09a2.16,2.16,0,0,0-.35-.63,3.72,3.72,0,0,0-.52-.53,1.81,1.81,0,0,0-.71.25,3.2,3.2,0,0,0-.45.39,3.2,3.2,0,0,0,.88.38,4.94,4.94,0,0,0,1.07.21Z" fill="#372d73"/><path d="M162.83,34.7h-4.28v-1H162L160.91,29l-.45-.14a2.14,2.14,0,0,1,.1-.71,2.37,2.37,0,0,1,.31-.64l.14.06c0,.21.19.37.56.48l.88.22a2.78,2.78,0,0,1-.06.58,1.75,1.75,0,0,1-.17.47l-.41-.09,1,4.36Z" fill="#372d73"/><path d="M165.75,33.29a1.65,1.65,0,0,1-.25.86,4.83,4.83,0,0,1-.55.7l-.16-.05c0-.11,0-.23.05-.38s0-.23,0-.28a12.05,12.05,0,0,0-.15-1.61c-.09-.69-.2-1.41-.34-2.15-.08-.46-.17-.92-.26-1.39.11-.17.24-.34.39-.53l.42-.53c.09.42.21,1,.35,1.73s.25,1.39.33,2A13.29,13.29,0,0,1,165.75,33.29Z" fill="#372d73"/><path d="M178.59,34.37a2.51,2.51,0,0,1-1.05,1.82,4.08,4.08,0,0,1-2.72,1,9.23,9.23,0,0,1-1.18-.09c-.3,0-.68-.11-1.15-.21l-1.13-.25.15-.19,1,.15a6.22,6.22,0,0,0,1,.08,5.68,5.68,0,0,0,2-.34,6.35,6.35,0,0,0,1.47-.8A12.44,12.44,0,0,0,178,34.7a4.8,4.8,0,0,1-1.75-.24.92.92,0,0,1-.66-.89,1.6,1.6,0,0,1,.41-1,1.56,1.56,0,0,1,1.23-.57,1.17,1.17,0,0,1,1.09.56,2.46,2.46,0,0,1,.26,1.22Zm-.55-.61a1.57,1.57,0,0,0-.46-.74.88.88,0,0,0-.57-.18.91.91,0,0,0-.42.11.29.29,0,0,0-.17.25c0,.19.13.32.38.42a4,4,0,0,0,1.24.14Z" fill="#372d73"/><path d="M195.67,34.7h-8.26a7.66,7.66,0,0,1-2.65-.37c-.83-.31-1.24-.79-1.24-1.45a1.9,1.9,0,0,1,.36-1.05c.09-.13.3-.37.63-.74l.25.11-.37.51a1.39,1.39,0,0,0-.25.7c0,.44.36.77,1.08,1a7.61,7.61,0,0,0,2.43.32H195v-.15a1.91,1.91,0,0,0-.24-1,1.83,1.83,0,0,0-.8-.67l.67-.9a5.87,5.87,0,0,1,.46.38,2.52,2.52,0,0,1,.6,1.81Zm-6.06-4.53L189,31l-1.41-.47.65-.8Zm2-.49-.68.8L189.53,30l.64-.79Z" fill="#372d73"/><path d="M199.74,34.7h-1.22a1.4,1.4,0,0,1-.94-.3,1.66,1.66,0,0,1-.48-.79,7.41,7.41,0,0,1-.24-1.3c0-.42-.07-.84-.11-1.28a6.35,6.35,0,0,0-.15-1,1.61,1.61,0,0,0-.25-.56,1.51,1.51,0,0,0-.53-.46l1.07-1.08a5,5,0,0,1,.48,1.59c.06.39.11,1.29.17,2.73a2.47,2.47,0,0,0,.45,1.26.75.75,0,0,0,.53.23h1.22Z" fill="#372d73"/><path d="M209.15,34.7h-.66a4.31,4.31,0,0,1-1-.09,2.76,2.76,0,0,1-.72-.28,2.93,2.93,0,0,1-.71.27,5.61,5.61,0,0,1-1.22.1h-.56a3.49,3.49,0,0,1-.91-.11,6.18,6.18,0,0,1-.73-.23,3.44,3.44,0,0,1-.76.27,6.09,6.09,0,0,1-1.13.07h-1.67v-1h1.68a4.76,4.76,0,0,0,1-.07c.33-.09.5-.26.5-.51s0-.22,0-.33a1.61,1.61,0,0,0-.1-.36l.36-.33a7.78,7.78,0,0,0,.39.75,2.35,2.35,0,0,0,.61.61,1.85,1.85,0,0,0,1,.24h.58a2.9,2.9,0,0,0,1-.12.49.49,0,0,0,.35-.46,1.87,1.87,0,0,0,0-.34l-.09-.34.35-.34.18.52a1.89,1.89,0,0,0,.57.86,1.36,1.36,0,0,0,.8.21.71.71,0,0,0,.38-.09.29.29,0,0,0,.14-.24.94.94,0,0,0-.36-.65l-.43-.36.58-.61a3.22,3.22,0,0,1,.47.59,2.37,2.37,0,0,1,.18,1Z" fill="#372d73"/><path d="M212.07,33.29a1.65,1.65,0,0,1-.25.86,4.42,4.42,0,0,1-.56.7l-.15-.05a3.43,3.43,0,0,0,0-.38,1.83,1.83,0,0,0,0-.28,13.57,13.57,0,0,0-.14-1.61c-.09-.69-.21-1.4-.34-2.15-.08-.46-.17-.92-.27-1.4l.39-.52c.15-.19.29-.37.43-.53.09.42.2,1,.34,1.73s.26,1.39.33,2A12,12,0,0,1,212.07,33.29Z" fill="#372d73"/><path d="M221.49,34.7a1.72,1.72,0,0,1-.82,1.26,6.28,6.28,0,0,1-1.76,1,4.63,4.63,0,0,1-1.65.4,7.83,7.83,0,0,1-1.29-.11c-.35-.06-.78-.14-1.26-.26l-1.24-.31.15-.22,1.19.15a8.32,8.32,0,0,0,1.12.08,6.65,6.65,0,0,0,2.31-.45,6.94,6.94,0,0,0,1.86-1c.51-.42.77-.8.77-1.14a1.51,1.51,0,0,0-.4-.92,4.6,4.6,0,0,0-.9-.8l.49-.87a4,4,0,0,1,1.05.84,1.69,1.69,0,0,1,.38,1.07Z" fill="#372d73"/><path d="M227.46,34.7h-3.87a2,2,0,0,1-.89-.18c-.26-.12-.39-.27-.39-.43a1.58,1.58,0,0,1,0-.38,1.22,1.22,0,0,1,.13-.38h.18a.61.61,0,0,0,.34.33,1.75,1.75,0,0,0,.58.08h3.36a2.65,2.65,0,0,0-.43-1.59,2.75,2.75,0,0,0-1.8-1l.13-1.07a3.56,3.56,0,0,1,2.12,1.5,4.1,4.1,0,0,1,.51,2.17Z" fill="#372d73"/><path d="M231.13,34.7h-4.27v-1h3.4l-1-4.71-.46-.14a2.45,2.45,0,0,1,.11-.71,2.37,2.37,0,0,1,.31-.64l.13.06q0,.31.57.48l.88.22a2.38,2.38,0,0,1-.07.59,1.51,1.51,0,0,1-.16.46l-.42-.09,1,4.36Z" fill="#372d73"/><path d="M234.06,33.29a1.65,1.65,0,0,1-.25.86,5.12,5.12,0,0,1-.56.7l-.15-.05c0-.11,0-.23,0-.38a1.83,1.83,0,0,0,0-.28,13.57,13.57,0,0,0-.14-1.61c-.1-.69-.21-1.41-.34-2.15-.08-.46-.17-.92-.27-1.39l.39-.53.42-.53c.1.42.21,1,.35,1.73s.25,1.39.33,2A11.93,11.93,0,0,1,234.06,33.29Z" fill="#372d73"/><path d="M247.9,34.7a1.73,1.73,0,0,1-.81,1.26,6.28,6.28,0,0,1-1.76,1,4.63,4.63,0,0,1-1.66.4,7.81,7.81,0,0,1-1.28-.11c-.36-.06-.78-.14-1.27-.26l-1.23-.31.14-.22,1.19.15a8.44,8.44,0,0,0,1.12.08,6.57,6.57,0,0,0,2.31-.45,6.64,6.64,0,0,0,1.86-1c.52-.42.77-.8.77-1.14a1.49,1.49,0,0,0-.39-.92,4.91,4.91,0,0,0-.9-.8l.49-.87a4,4,0,0,1,1.05.84,1.66,1.66,0,0,1,.37,1.07Z" fill="#372d73"/><path d="M252.23,34.7H247.3v-1h4.31a1.76,1.76,0,0,0-.24-1,3.94,3.94,0,0,0-.82-.69l.68-.9a3.54,3.54,0,0,1,.77.79,3.18,3.18,0,0,1,.23,1.41ZM251.35,36l-.68.8-1.39-.46.64-.8Z" fill="#372d73"/><path d="M256.56,34.7h-4.94v-1h4.32a1.76,1.76,0,0,0-.25-1,3.55,3.55,0,0,0-.81-.69l.68-.9a3.43,3.43,0,0,1,.76.79,3,3,0,0,1,.23,1.41Zm-2-5-.66.81-1.41-.47.65-.8Zm2-.49-.68.79-1.39-.47.64-.8Z" fill="#372d73"/><path d="M266,34.7H256v-1H263c-.58-.29-1.08-.51-1.48-.68a9.62,9.62,0,0,0-1.38-.44,6.78,6.78,0,0,0-1.42-.15,8.83,8.83,0,0,0-.89,0,1.9,1.9,0,0,1,.66-.66,2.79,2.79,0,0,1,1.49-.36,5.12,5.12,0,0,1,2.08.55q.6.28,1.95,1.05a5.1,5.1,0,0,0,1.43.65H266Zm-4.15-5.14-.66.8-1.41-.46.64-.81Z" fill="#372d73"/><path d="M272.93,34.7H272a5.89,5.89,0,0,1-1.3-.16,6.42,6.42,0,0,1-1.48-.53,3,3,0,0,1-1,.54,5.88,5.88,0,0,1-1.52.15h-1.36v-1h1.33a3.64,3.64,0,0,0,1.4-.25,3.32,3.32,0,0,0,.87-.56,4.8,4.8,0,0,1,1.3-.85,4.9,4.9,0,0,1,1.27-.41,9.17,9.17,0,0,1,.95,1,1.89,1.89,0,0,1,.48,1Zm-1-1.09a2.39,2.39,0,0,0-.34-.63,4.42,4.42,0,0,0-.53-.53,1.76,1.76,0,0,0-.7.25,2.37,2.37,0,0,0-.45.39,3.07,3.07,0,0,0,.88.38,4.74,4.74,0,0,0,1.06.21Z" fill="#372d73"/><path d="M56.79,28.4h0v0Z" fill="#db2e30"/><path d="M18.37,7.32a1.27,1.27,0,0,1-.29,1,3.59,3.59,0,0,1-1,.79l-2.66,1.52c-.11.06-.16.06-.21-.07q-.86-2.2-1.73-4.41c0-.11,0-.15.07-.21l2.75-1.54A3.1,3.1,0,0,1,16.14,4a1.14,1.14,0,0,1,1.27.48,5.79,5.79,0,0,1,.72,1.63A4.28,4.28,0,0,1,18.37,7.32Zm-1.1.17a5.36,5.36,0,0,0-.61-1.86c-.33-.67-.59-.76-1.26-.4-.51.27-1,.57-1.52.85-.1,0-.13.09-.08.21.38,1,.77,1.94,1.14,2.91.05.14.1.12.21.06.44-.26.89-.51,1.34-.76a2.32,2.32,0,0,0,.56-.43.77.77,0,0,0,.22-.58Z" fill="#282e68"/><path d="M66.15,22.91a1.22,1.22,0,0,1-.6,1c-.08.06-.11,0-.15-.05-.14-.3-.29-.61-.45-.91a.13.13,0,0,1,0-.19.65.65,0,0,0,.17-.84,9.15,9.15,0,0,0-.72-1.39c-.19-.27-.34-.33-.57-.22a.57.57,0,0,0-.38.72,14.57,14.57,0,0,0,.58,1.42,7.48,7.48,0,0,1,.55,1.59.86.86,0,0,1-.09.61,1.82,1.82,0,0,1-1.14.85.66.66,0,0,1-.66-.2,1.54,1.54,0,0,1-.17-.19A11.13,11.13,0,0,1,61,21.87a1.25,1.25,0,0,1,.59-1.49c.09-.05.13-.05.17,0,.15.3.29.6.45.9,0,.08,0,.13,0,.19-.4.35-.43.46-.23.94A8.47,8.47,0,0,0,62.67,24c.18.28.32.33.56.22s.51-.38.46-.67a3.28,3.28,0,0,0-.26-.72,14,14,0,0,1-.85-2.17A1.4,1.4,0,0,1,63.78,19a.74.74,0,0,1,.61.25,4.23,4.23,0,0,1,.63.89,10,10,0,0,1,1.1,2.56Z" fill="#2b2f68"/><path d="M46.93,7.82a2.59,2.59,0,0,1,.2-.82c0-.07.07-.08.13,0l.79.45c.08,0,.08.11.05.19L48,7.92a.46.46,0,0,0,.17.5,6.32,6.32,0,0,0,1.56.93.39.39,0,0,0,.55-.2,1.52,1.52,0,0,0,.16-.4.47.47,0,0,0-.15-.53,3.19,3.19,0,0,0-.47-.35,14.1,14.1,0,0,1-1.55-1.11,1.15,1.15,0,0,1-.41-1.49,2.1,2.1,0,0,1,.31-.66.77.77,0,0,1,1-.35A7.23,7.23,0,0,1,51.93,5.9a1.24,1.24,0,0,1,.15,1.52c0,.09-.09.06-.14,0L51.15,7c-.09,0-.07-.11,0-.19.11-.47.07-.6-.32-.86a5.71,5.71,0,0,0-1.13-.63c-.35-.13-.52,0-.66.29s-.14.6.24.89c.54.41,1.13.74,1.66,1.16a1.32,1.32,0,0,1,.47,1.93v0c-.38.83-.75,1-1.58.63A9.64,9.64,0,0,1,47.6,9,1.32,1.32,0,0,1,46.93,7.82Z" fill="#282e68"/><path d="M26.45.54c.89,0,1.23.29,1.32,1.11,0,.11,0,.15-.13.16l-.8.16c-.1,0-.14,0-.17-.1-.15-.5-.26-.56-.78-.48a5.83,5.83,0,0,0-1.08.25.75.75,0,0,0-.29,1.18.35.35,0,0,0,.29.1c.49,0,1-.11,1.44-.16a5,5,0,0,1,1.16,0A.73.73,0,0,1,28,3.2a2.68,2.68,0,0,1,.17,1.45,1,1,0,0,1-.59.78A7.45,7.45,0,0,1,26,5.92a6.66,6.66,0,0,1-1.26.14,1,1,0,0,1-1.07-.81c-.15-.55-.15-.55.4-.66l.08,0a1.06,1.06,0,0,1,.45-.07c.12,0,.07.25.12.39s.2.35.47.33a5.9,5.9,0,0,0,1.56-.3A.81.81,0,0,0,27,3.68a.53.53,0,0,0-.47-.1l-1.4.17a5.57,5.57,0,0,1-1,0,.73.73,0,0,1-.65-.43A2.61,2.61,0,0,1,23.24,2a1,1,0,0,1,.66-.85A7.15,7.15,0,0,1,25.58.64,4.94,4.94,0,0,1,26.45.54Z" fill="#282e68"/><path d="M51.58,10.83a2,2,0,0,1,.3-1c0-.1.1-.08.16,0l.7.58c.09.07.07.12,0,.21-.24.51-.22.62.18,1a7,7,0,0,0,1.15.95c.33.21.49.17.71-.14a.64.64,0,0,0-.07-1c-.45-.44-.92-.86-1.37-1.3a4.65,4.65,0,0,1-.53-.63,1,1,0,0,1-.13-.93,2.35,2.35,0,0,1,.46-.87.79.79,0,0,1,1.06-.24,6.1,6.1,0,0,1,1.24.83,7.22,7.22,0,0,1,1.25,1.22,1.29,1.29,0,0,1,0,1.59c-.06.09-.1.08-.17,0l-.7-.59a.13.13,0,0,1,0-.19.69.69,0,0,0-.22-.94,7.43,7.43,0,0,0-1-.81c-.27-.16-.42-.14-.59,0a.69.69,0,0,0-.15.83,5.74,5.74,0,0,0,.73.75,12.92,12.92,0,0,1,1.17,1.17,1.2,1.2,0,0,1,.15,1.49,2.61,2.61,0,0,1-.51.72.72.72,0,0,1-.82.14c-.1,0-.21-.09-.31-.15A10.33,10.33,0,0,1,52,11.71,1.26,1.26,0,0,1,51.58,10.83Z" fill="#282e68"/><path d="M59.15,19.07c-.25-.31-.5-.6-.76-.89a.2.2,0,0,1,0-.21,2.55,2.55,0,0,1,.13-.39.72.72,0,0,0-.18-.9c-.48-.5-.91-1-1.36-1.58a.2.2,0,0,0-.3-.06c-.22.11-.46.33-.67.27s-.33-.33-.48-.52-.34-.27-.31-.42.29-.16.45-.24l3.73-1.75c.14-.07.21-.07.32.06.31.38.63.75.95,1.13a.21.21,0,0,1,.08.25c-.52,1.72-1,3.45-1.54,5.17A.3.3,0,0,1,59.15,19.07Zm.53-5.46h0l-2.07,1c-.15.07-.07.13,0,.2l1.17,1.36c0,.06.07.14.17.14l.78-2.55s0-.09,0-.13,0,0,0,0v0Z" fill="#282e68"/><path d="M11.06,6.93l.27.46L12.68,9.7c.09.17.18.34.25.51a1.39,1.39,0,0,1-.21,1.55,10,10,0,0,1-1.83,1.67,3.53,3.53,0,0,1-.82.48.78.78,0,0,1-.9-.16,2.61,2.61,0,0,1-.43-.56c-.53-.91-1.06-1.83-1.6-2.74-.07-.12-.07-.18,0-.26s.42-.34.62-.53.18-.12.28,0c.49.87,1,1.72,1.49,2.57.4.69.56.72,1.2.25a8.24,8.24,0,0,0,1-.92.69.69,0,0,0,.13-.82c-.06-.12-.13-.24-.2-.36-.49-.85-1-1.71-1.5-2.56-.07-.13-.07-.19,0-.28S10.79,7.15,11.06,6.93Z" fill="#282e68"/><path d="M31.15,2.59c0-.79,0-1.59,0-2.39,0-.15,0-.2.2-.2L35,.08c.14,0,.19,0,.18.18s.07.48-.06.62-.38,0-.59,0c-.67,0-1.35,0-2,0-.22,0-.27.06-.26.26a8.62,8.62,0,0,1,0,.88c0,.16,0,.19.19.19.79,0,1.58,0,2.37,0,.17,0,.21,0,.21.22C35,3,35,3,34.48,3c-.68,0-1.35,0-2,0-.18,0-.22.06-.22.23,0,.34,0,.68,0,1,0,.19.05.22.22.23.83,0,1.66,0,2.48,0,.17,0,.26,0,.23.22s.08.48-.06.59-.37,0-.57,0l-3.2-.06c-.17,0-.23,0-.23-.22,0-.8,0-1.59,0-2.39Z" fill="#2a2f69"/><path d="M22.54,4.21c0,.16-.08.15-.15.18-.75.28-1.5.56-2.25.82-.17.06-.2.13-.15.29.1.32.17.65.24,1s.09.21.27.15c.8-.31,1.61-.59,2.41-.89.15-.06.21-.05.24.13s.19.41.1.58-.34.16-.52.23c-1,.38-2.08.75-3.11,1.14-.17.07-.21,0-.25-.13C19,6.15,18.6,4.62,18.21,3.1c0-.15,0-.21.13-.26l3.5-1.28c.13-.05.2-.05.22.12s.2.44.11.6-.36.16-.55.24l-2,.74c-.13,0-.16.09-.12.22a9.32,9.32,0,0,1,.23.91c0,.17.08.2.25.13l2.23-.82c.18-.07.24,0,.27.14S22.52,4.11,22.54,4.21Z" fill="#282e68"/><path d="M46.54,6l-.15,0c-.75-.3-1.49-.58-2.24-.89-.18-.07-.22,0-.26.15q-.12.48-.27,1c0,.16,0,.23.15.29.8.3,1.59.62,2.39.93.15.06.22.12.14.29s0,.46-.18.54-.36-.11-.54-.18L42.47,6.78c-.13,0-.18-.1-.13-.25C42.76,5,43.17,3.48,43.58,2c0-.14.08-.17.23-.12L47.29,3.2c.14,0,.18.11.12.25s0,.5-.2.57-.37-.12-.56-.19c-.66-.26-1.32-.51-2-.78-.16-.06-.21,0-.24.12a8.5,8.5,0,0,1-.25.9c0,.14,0,.2.13.25l2.26.88c.16.06.19.13.14.28a2.5,2.5,0,0,0-.11.39S46.58,6,46.54,6Z" fill="#2a2f69"/><path d="M2.37,15.84c.14.12.26.25.41.36s.11.17,0,.3c-.51.81-1,1.63-1.52,2.45-.1.15-.08.22.05.33a4.44,4.44,0,0,1,.56.5c.13.12.19.13.29,0,.47-.77.94-1.54,1.42-2.3,0-.06.07-.1.11-.17l.41.36c.11.09,0,.15,0,.22L2.69,20.17c-.09.14-.1.22,0,.33a7.32,7.32,0,0,1,.66.59c.12.11.18.13.28,0,.49-.83,1-1.65,1.51-2.47.1-.17.15-.16.28,0,.39.36.4.35.12.81-.67,1.09-1.35,2.17-2,3.27-.1.16-.16.16-.29,0L.1,19.83C0,19.76,0,19.72,0,19.59c.77-1.23,1.53-2.47,2.29-3.71Z" fill="#2a2f69"/><path d="M40.48,1c0,.11,0,.19,0,.26-.06.51-.06.51-.58.42-.34-.06-.69-.1-1-.17-.16,0-.19,0-.2.16-.08.72-.17,1.44-.25,2.17-.06.58-.13,1.16-.19,1.74,0,.13,0,.17-.2.14s-.52-.09-.78-.13-.16,0-.14-.17c.13-1.11.25-2.21.38-3.32,0-.22,0-.43.07-.65s0-.16-.13-.18c-.44-.06-.87-.15-1.3-.2-.2,0-.24-.1-.21-.28s0-.33.06-.5,0-.15.17-.12l4.17.68C40.38.86,40.53.84,40.48,1Z" fill="#2b2f68"/><path d="M4.68,14.24c-.07,0-.09.07-.13.11l-1,1.17c-.07.09-.12.11-.2,0S3,15.2,3,15s.22-.33.36-.49L6,11.35c.12-.15.2-.2.32,0s.32.31.32.45-.21.3-.33.44c-.25.3-.49.6-.76.89-.11.12-.09.19,0,.31l2.26,2.76c.1.11.12.18,0,.3a7,7,0,0,0-.56.66c-.11.13-.16.1-.25,0-.75-.93-1.5-1.85-2.26-2.77Z" fill="#282e68"/><path d="M63.38,17.36a.57.57,0,0,1-.11.11l-3.14,3c-.09.09-.14.11-.22,0s-.34-.54-.52-.8a.14.14,0,0,1,0-.23l3.18-3c.06-.05.1-.12.18,0,.18.29.38.58.57.87Z" fill="#282e68"/><path d="M56.82,28.13l0,0h0v0Z" fill="#db2e30"/><path d="M59.68,13.61l0,0v0s0,0,0,0Z" fill="#fcfcfd"/><path d="M56.81,28.13h0Z" fill="#db2e30"/></svg>